<svg xmlns="http://www.w3.org/2000/svg" viewBox="0 0 49.44 14.79">
  <defs>
    <clipPath id="a" clipPathUnits="userSpaceOnUse">
      <path d="M0 1080h1080V0H0Z"/>
    </clipPath>
  </defs>
  <g clip-path="url(#a)" transform="matrix(.06664 0 0 -.06664 -11.26 43.38)">
    <path fill="#fff" d="m434 542 8 1c9 2 12 11 12 18 0 8-3 17-12 19l-8 1h-27v-39zm-47 57h57c21-3 30-18 30-38 0-19-10-34-30-37h-37v-41h-20Zm129-103c13 0 21 9 23 15l2 13-28-5c-7-3-11-6-11-12s5-11 14-11m-33 11c0 13 6 21 20 26 9 3 23 5 38 7-1 10-6 15-18 15-8 0-16-3-19-12l-18 5c5 15 17 25 37 25 16 0 28-5 34-17 3-6 3-12 3-19v-54h-17v12c-8-10-17-14-31-14-19 0-29 12-29 26m95 63h17v-14c2 4 5 7 9 10 6 4 15 5 23 4v-18c-5 2-13 1-18-2-8-4-12-13-12-23v-44h-19zm61-43c0 26 16 46 43 46 20 0 34-11 38-28l-19-5c-3 9-11 14-19 14-16 0-22-11-23-27 1-17 8-28 23-28 10 0 16 5 19 14l19-5c-5-17-19-27-38-27-27 0-43 19-43 46m157 9c-2 14-8 20-20 20-13 0-21-7-23-20zm-64-10c0 28 18 47 43 47 27 0 43-20 41-52h-63c1-14 9-22 22-22 10 0 17 4 21 12l19-5c-7-16-22-25-39-25-26 0-44 18-44 45m140-28c15 0 22 12 22 29s-7 28-22 28-22-12-22-28 7-29 22-29m-43 29c0 26 16 46 40 46 9 0 16-3 22-7v33h20V483h-17v7c-7-6-15-9-25-9-24 0-40 20-40 46"/>
    <path fill="#2873f2" d="m206 466-37-37v148l37-18z"/>
    <path fill="#4edd77" d="M336 612c0-11-5-21-12-28l-44-44v111h16c13 0 25-6 32-16l2-3c4-6 6-13 6-20"/>
    <path fill="#2873f2" d="M280 559v-19l-37-37v74z"/>
    <path fill="#4edd77" d="m243 633-37 18v-92l37 18z"/>
  </g>
</svg>
